<?xml version="1.0" standalone="no"?>
<!DOCTYPE svg PUBLIC "-//W3C//DTD SVG 1.1//EN" "http://www.w3.org/Graphics/SVG/1.1/DTD/svg11.dtd" >
<svg xmlns="http://www.w3.org/2000/svg">
<metadata>Generated by IcoMoon</metadata>
<defs>
<font id="biopharma" horiz-adv-x="1024">
<font-face units-per-em="1024" ascent="960" descent="-64" />
<missing-glyph horiz-adv-x="1024" />
<glyph unicode="&#x20;" horiz-adv-x="512" d="" />
<glyph unicode="&#xe900;" glyph-name="arrow-long-left" horiz-adv-x="2176" d="M34.27 447.887l490.74 490.74c12.497 12.497 32.758 12.497 45.254 0s12.497-32.758 0-45.255l-413.485-413.485h1923.533c17.67 0 32-14.327 32-32s-14.33-32-32-32h-1923.533l413.485-413.487c12.497-12.493 12.497-32.755 0-45.254-12.497-12.493-32.758-12.493-45.254 0l-490.74 490.742z" />
<glyph unicode="&#xe901;" glyph-name="arrow-long-rigth" horiz-adv-x="2112" d="M2078.355 447.887l-490.739 490.74c-12.499 12.497-32.762 12.497-45.254 0-12.499-12.497-12.499-32.758 0-45.255l413.485-413.485h-1923.534c-17.673 0-32-14.327-32-32s14.327-32 32-32h1923.534l-413.485-413.487c-12.499-12.493-12.499-32.755 0-45.254 12.493-12.493 32.755-12.493 45.254 0l490.739 490.742z" />
<glyph unicode="&#xe902;" glyph-name="arrow-short-left" horiz-adv-x="1152" d="M590.972 938.627c-12.497 12.497-32.758 12.497-45.255 0l-490.74-490.74 490.74-490.742c12.497-12.493 32.758-12.493 45.255 0 12.497 12.499 12.497 32.762 0 45.254l-413.485 413.487h923.141c17.67 0 32 14.327 32 32s-14.33 32-32 32h-923.141l413.485 413.485c12.497 12.497 12.497 32.758 0 45.255z" />
<glyph unicode="&#xe903;" glyph-name="arrow-short-rigth" horiz-adv-x="1152" d="M586.278 938.627c12.497 12.497 32.758 12.497 45.255 0l490.739-490.74-490.739-490.742c-12.497-12.493-32.758-12.493-45.255 0-12.497 12.499-12.497 32.762 0 45.254l413.485 413.487h-923.138c-17.673 0-32 14.327-32 32s14.327 32 32 32h923.138l-413.485 413.485c-12.497 12.497-12.497 32.758 0 45.255z" />
<glyph unicode="&#xe904;" glyph-name="ask-icon" horiz-adv-x="819" d="M404.45 940.8c-222.471 0-403.2-187.757-403.2-418.88 0-231.124 180.729-418.88 403.2-418.88h23.718v-147.84c230.536 115.318 379.482 344.96 379.482 566.72 0 231.123-180.726 418.88-403.199 418.88zM451.885 226.243h-94.871v98.56h94.871v-98.56zM470.859 461.798c-0.474-0.493-0.949-1.479-1.423-2.464-2.372-3.942-4.744-7.884-6.641-11.826-0.949-1.48-1.423-3.451-1.897-5.422-1.423-3.451-2.846-6.897-3.794-10.348-3.321-10.348-4.744-21.192-4.744-33.51h-95.345c0 25.134 3.795 46.321 9.487 64.063 0 0.493 0 0.986 0.474 1.478 0.475 1.971 1.897 2.957 2.372 4.928 2.846 7.885 6.167 14.784 10.436 21.683 1.423 2.464 3.32 4.928 4.744 7.392 1.423 1.971 2.372 4.435 3.794 5.914l0.475-0.493c39.845 54.208 104.832 70.963 110.050 132.070 4.269 48.294-28.936 95.11-74.473 104.966-49.333 10.842-93.922-19.219-109.101-63.078-6.641-17.741-22.295-32.032-41.743-32.032h-9.487c-28.461 0-49.333 29.075-41.269 57.658 13.292 45.317 41.841 84.149 80.426 109.395s84.63 35.219 129.712 28.096c80.164-12.32 144.205-80.819 157.957-164.102 20.874-120.243-77.317-149.319-120.009-214.368z" />
<glyph unicode="&#xe905;" glyph-name="b-logo" horiz-adv-x="1075" d="M56.073 249.892l-7.178-282.148 626.479 16.174c46.945-0.681 94.019 8.151 138.399 25.964 44.38 17.807 85.151 44.232 119.864 77.686 34.714 33.449 62.659 73.242 82.15 116.982 19.492 43.735 30.136 90.522 31.288 137.549s-7.209 93.327-24.581 136.116c-17.372 42.79-43.397 81.189-76.513 112.895s-72.643 56.062-116.204 71.609c-24.94 8.901-50.908 14.809-77.379 17.652-0.077 0.462-0.159 0.924-0.236 1.385-11.709 67.028-43.233 128.076-90.578 175.423-47.35 47.347-108.396 78.868-175.423 90.577s-137.028 3.079-201.146-24.797c-64.119-27.876-119.478-73.747-159.077-131.813s-61.661-125.719-63.394-194.404l-8.395-346.896 1.924 0.046zM123.321 251.5l277.828 6.641c68.685 1.731 136.338 23.793 194.404 63.391 58.066 39.603 103.936 94.961 131.814 159.079 17.756 40.851 27.704 84.089 29.558 127.425 14.029-3.061 27.771-7.225 41.103-12.47 33.812-13.3 64.328-33.288 89.789-58.818 38.364-38.367 63.913-87.823 73.436-142.128 9.518-54.303 2.58-111.022-19.942-163.005-22.523-51.978-59.617-96.886-106.609-129.065-46.991-32.174-101.775-50.171-157.43-51.722l-559.349-14.054 5.396 214.728zM686.259 614.134c-0.748-36.542-8.735-73.12-23.7-107.567-22.154-50.987-58.609-95.017-104.755-126.541-46.149-31.519-99.924-49.116-154.54-50.565l-276.446-6.948 0.701 27.044c8.645 63.488 38.481 123.608 85.098 170.225 54.141 54.141 126.495 85.649 201.187 87.61l272.455 6.742zM679.286 681.251l-263.685-6.627c-92.513-2.543-182.095-41.616-249.153-108.674-12.428-12.428-23.896-25.631-34.347-39.482l1.884 72.714c1.449 54.616 19.045 108.391 50.565 154.539s75.552 82.599 126.539 104.754c50.987 22.155 106.643 29.020 159.943 19.729 53.301-9.292 101.854-34.323 139.537-71.935l-0.22-0.22c34.115-34.179 57.882-77.303 68.936-124.798z" />
<glyph unicode="&#xe906;" glyph-name="close-rounded" horiz-adv-x="1109" d="M79.994 935.006c33.325 33.325 87.355 33.325 120.68 0l366.367-366.367 357.743 357.746c33.331 33.325 87.356 33.325 120.678 0 33.331-33.325 33.331-87.355 0-120.679l-357.742-357.745 357.708-357.711c33.331-33.323 33.331-87.356 0-120.678-33.323-33.323-87.356-33.323-120.678 0l-357.709 357.711-366.332-366.329c-33.325-33.331-87.355-33.331-120.68 0-33.325 33.323-33.325 87.356 0 120.678l366.332 366.33-366.367 366.367c-33.325 33.325-33.325 87.355 0 120.68z" />
<glyph unicode="&#xe907;" glyph-name="close-square" horiz-adv-x="1097" d="M1071.141 856.869l-103.131 103.131-408.866-408.869-408.869 408.869-103.131-103.131 408.868-408.869-408.868-408.869 103.131-103.131 408.869 408.869 408.866-408.869 103.131 103.131-408.866 408.869 408.866 408.869z" />
<glyph unicode="&#xe908;" glyph-name="curved-arrow" horiz-adv-x="960" d="M504.218 698.208c66.416 113.463 224.454 211.578 416.064 196.205 17.619-1.413 33.043 11.722 34.458 29.339s-11.722 33.043-29.338 34.457c-225.152 18.064-415.574-103.009-487.933-248.971-64.090 5.412-133.020-3.531-193.975-35.132-69.636-36.103-126.346-100.548-152.917-200.205-41.191-154.49-5.55-294.998 38.782-393.091 4.264-9.434 8.622-18.509 13.018-27.197l-68.496 36.47c-15.6 8.304-34.979 2.39-43.285-13.21s-2.393-34.979 13.207-43.283l176.237-93.834c9.415-5.011 20.709-5.005 30.118 0.022s15.693 14.41 16.76 25.024l18.872 187.728c1.768 17.584-11.054 33.27-28.639 35.040-17.584 1.766-33.272-11.056-35.040-28.64l-10.052-99.994c-8.124 14.454-16.41 30.595-24.38 48.23-40.53 89.677-71.437 214.57-35.263 350.246 22.091 82.854 67.427 132.342 120.533 159.872 42.832 22.205 92.299 30.892 141.262 29.24-17.008-68.632-7.216-139.96 39.603-200.456 34.192-44.176 71.206-70.586 108.842-78.515 38.822-8.182 73.706 4.358 98.582 28.621 47.901 46.72 57.45 133.757 9.789 202.819-19.459 28.202-50.55 51.81-86.118 69.715-24.317 12.242-51.664 22.298-80.691 29.498zM478.285 638.534c28.605-6.192 55.158-15.568 77.846-26.989 29.747-14.976 50.87-32.451 62.221-48.899 31.811-46.099 21.491-97.936-1.802-120.653-10.72-10.458-24.266-15.277-40.701-11.814-17.622 3.715-42.698 17.949-71.421 55.062-34.413 44.464-41.946 98.090-26.144 153.293z" />
<glyph unicode="&#xe909;" glyph-name="dots" d="M597.347 736.225c50.015 50.015 50.015 131.106 0 181.121s-131.106 50.015-181.121 0c-50.015-50.015-50.015-131.105 0-181.121s131.106-50.016 181.121 0zM597.347-21.204c50.015 50.015 50.015 131.109 0 181.124s-131.106 50.015-181.121 0c-50.015-50.015-50.015-131.109 0-181.124s131.106-50.015 181.121 0zM976.201 538.631c50.015-50.015 50.015-131.106 0-181.121s-131.101-50.015-181.116 0c-50.015 50.015-50.015 131.106 0 181.121s131.101 50.015 181.116 0zM218.632 357.511c50.015 50.015 50.015 131.106 0 181.121s-131.106 50.015-181.121 0c-50.015-50.015-50.015-131.106 0-181.121s131.106-50.015 181.121 0z" />
<glyph unicode="&#xe90a;" glyph-name="drop" horiz-adv-x="683" d="M0 298.688c0-200.316 150.621-362.688 336.244-362.688 185.685 0 346.423 162.372 346.423 362.688 0 200.256-346.423 661.312-346.423 661.312s-336.244-461.056-336.244-661.312z" />
<glyph unicode="&#xe90b;" glyph-name="facebook" horiz-adv-x="455" d="M312.523-35.556v483.612h117.809l15.613 166.655h-133.422l0.2 83.412c0 43.467 3.644 66.757 58.738 66.757h73.65v166.674h-117.827c-141.528 0-191.342-80.846-191.342-216.803v-100.060h-88.219v-166.655h88.219v-483.593h176.581z" />
<glyph unicode="&#xe90c;" glyph-name="hand-1" horiz-adv-x="1380" d="M41.123 310.103c4.931 20.32 11.934 40.074 20.898 58.96 46.235 98.936 127.335 175.881 198.754 243.761 106.252 100.706 226.564 215.35 371.59 290.222 35.101 17.901 75.549 35.496 117.622 27.944 9.688-1.339 19.011-4.59 27.43-9.565s15.765-11.575 21.611-19.415c17.506-25.411 13.552-59.952-11.807-102.708-62.241-104.171-144.927-194.666-243.071-266.034-1.674-1.21-3.566-2.078-5.574-2.556s-4.092-0.555-6.126-0.228c-2.039 0.327-3.994 1.052-5.752 2.134-1.754 1.082-3.286 2.499-4.492 4.172-1.211 1.672-2.079 3.566-2.556 5.574-0.481 2.008-0.557 4.090-0.232 6.128 0.329 2.038 1.055 3.991 2.137 5.749s2.498 3.285 4.172 4.494c94.738 68.827 174.534 156.152 234.567 256.697 18.503 31.179 22.92 54.312 12.96 68.844-7.297 8.703-17.599 14.344-28.863 15.803-32.706 5.854-67.637-9.3-97.547-24.84-140.911-73.81-259.797-186.306-364.5-285.667-69.44-66.015-148.312-140.69-191.934-234.342-15.002-29.037-22.962-61.195-23.236-93.874 1.424-46.779 26.39-90.17 51.674-130.845 19.007-34.295 44.037-64.886 73.89-90.303 31.789-23.908 73.1-38.097 134.030-46.445 111.9-14.243 226.714-3.143 337.724 7.591 96.621 7.489 192.717 20.649 287.789 39.415 19.367 2.68 37.812 9.937 53.818 21.161 6.206 4.563 10.788 10.997 13.072 18.356 2.284 7.355 2.15 15.253-0.378 22.528-6.763 9.639-16.433 16.865-27.595 20.618-3.379 0.784-6.42 3.032-9.666 4.403-47.269-12.417-95.695-19.91-144.504-22.354-36.374-1.968-82.69-0.712-118.094 24.963-3.29 2.186-5.587 5.579-6.402 9.443s-0.080 7.894 2.044 11.224c15.551 26.446 47.157 33.231 70.202 35.804 67.709 8.032 136.357-0.962 199.716-26.17 31.82 8.958 62.94 20.24 93.108 33.761 12.030 4.417 22.386 12.471 29.629 23.040 2.484 6.856 2.889 14.296 1.166 21.388-1.723 7.088-5.494 13.512-10.845 18.468-13.766 12.52-30.27 21.633-48.195 26.62-29.558 9.919-59.842 17.537-90.575 22.782-19.679-6.767-39.709-12.479-59.997-17.105-36.152-8.37-89.6-17.23-137.354 3.246-2.351 0.953-4.421 2.484-6.024 4.452s-2.685 4.305-3.143 6.798c-0.623 2.582-0.557 5.28 0.191 7.822 0.752 2.547 2.164 4.848 4.087 6.674 22.417 23.307 55.238 27.336 83.946 28.294 38.547 1.060 77.112-1.371 115.218-7.266 28.935 9.652 57.059 21.584 84.106 35.684 26.744 14.568 55.674 39.936 47.086 63.746-4.755 14.26-21.183 24.251-51.472 31.864-20.431 4.724-40.711 9.407-61.516 12.511-70.278-25.413-149.905-41.695-226.064-20.85-2.707 0.69-5.165 2.119-7.106 4.127-1.946 2.003-3.29 4.51-3.891 7.239-0.775 2.533-0.868 5.222-0.272 7.805 0.597 2.578 1.861 4.955 3.669 6.892 34.785 33.301 85.259 36.659 124.768 35.428 35.586-0.654 71.092-3.685 106.278-9.072 22.065 8.373 43.56 17.651 64.174 27.132 77.748 35.858 153.012 76.865 225.298 122.747 29.38 18.604 63.167 44.239 62.544 77.052-0.637 35.447-43.903 60.615-86.528 66.438-56.979 6.382-114.648 2.284-170.158-12.090-115.948-25.97-226.861-70.741-328.348-132.536-3.74-2.236-8.214-2.895-12.439-1.832s-7.858 3.762-10.093 7.502c-2.235 3.74-2.894 8.215-1.83 12.441 1.060 4.226 3.762 7.856 7.502 10.092 104.706 63.544 219.091 109.549 338.637 136.197 59.294 15.268 120.885 19.511 181.715 12.517 53.827-8.256 112.070-42.304 113.063-97.65 0.904-48.36-40.702-81.014-77.134-104.026-73.835-46.533-150.679-88.105-230.026-124.44-6.749-3.085-13.499-6.171-20.547-9.189l14.701-3.397c26.308-6.077 62.477-19.078 73.683-52.322 14.113-42.122-22.644-79.921-61.818-101.372-13.984-7.609-28.169-14.706-42.652-21.112 16.019-3.7 31.918-8.611 47.563-13.931 23.463-6.010 45.060-17.76 62.86-34.184 9.928-9.621 16.687-22.047 19.363-35.617 2.676-13.566 1.144-27.626-4.39-40.301-10.725-17.145-26.994-30.106-46.107-36.722-21.375-9.412-43.030-17.827-64.975-25.244 9.261-6.042 16.825-14.345 21.985-24.126 5.561-13.459 6.54-28.378 2.787-42.451-3.758-14.073-12.039-26.522-23.565-35.421-19.79-14.67-42.897-24.224-67.272-27.808-96.069-19.18-193.207-32.568-290.887-40.092-112.765-10.952-229.329-22.265-344.824-7.502-45.113 5.779-102.356 16.678-149.022 51.921-33.191 27.51-61.009 60.915-82.052 98.54-27.691 44.326-54.748 92.071-56.419 146.49-0.476 16.589 1.219 33.164 5.044 49.308zM892.073 492.522c-9.194 0.423-18.566 0.73-27.795 1.002-22.871 1.051-45.768-1.496-67.851-7.546 32.029-2.716 64.285-0.508 95.646 6.545zM924.018 147.625c-44.82 11.375-91.354 14.407-137.274 8.953-11.442-1.126-22.595-4.261-32.951-9.265 26.17-9.243 54.063-12.564 81.666-9.732 29.861 1.273 59.597 4.595 88.999 9.942l-0.441 0.102zM866.362 314.221c-8.165 0.183-16.397 0.071-24.661-0.187-9.474-0.102-18.926-0.922-28.28-2.449 17.688-1.211 35.462-0.329 52.941 2.636z" />
<glyph unicode="&#xe90d;" glyph-name="instagram" d="M531.278 931.556c-131.334 0-147.775-0.58-199.37-2.901-51.45-2.369-86.605-10.542-117.359-22.485-32.278-12.13-61.52-31.157-85.686-55.754-24.596-24.167-43.623-53.409-55.754-85.686-11.944-30.754-20.116-65.909-22.486-117.359-2.369-51.595-2.901-68.036-2.901-199.37s0.532-147.775 2.901-199.367c2.369-51.45 10.542-86.608 22.486-117.362 12.132-32.279 31.159-61.52 55.754-85.686 24.168-24.593 53.41-43.622 85.686-55.757 30.754-11.941 65.909-20.116 117.359-22.482 51.595-2.321 68.036-2.901 199.37-2.901s147.776 0.58 199.369 2.901c51.45 2.367 86.608 10.542 117.362 22.482 32.273 12.134 61.52 31.164 85.686 55.757 24.593 24.166 43.622 53.407 55.751 85.686 11.947 30.754 20.116 65.911 22.488 117.362 2.321 51.593 2.901 68.033 2.901 199.367s-0.58 147.775-2.901 199.37c-2.372 51.45-10.542 86.605-22.488 117.359-12.129 32.277-31.158 61.519-55.751 85.686-24.166 24.597-53.407 43.624-85.686 55.754-30.754 11.944-65.911 20.116-117.362 22.485-51.593 2.321-68.033 2.901-199.369 2.901zM531.278 844.419c129.111 0 144.391-0.484 195.358-2.805 47.195-2.176 72.772-10.010 89.845-16.634 22.534-8.801 38.684-19.294 55.609-36.17 16.924-16.924 27.369-33.075 36.17-55.609 6.576-17.070 14.507-42.65 16.634-89.796 2.321-51.015 2.805-66.247 2.805-195.405 0-129.109-0.484-144.39-2.805-195.356-2.179-47.195-10.058-72.778-16.634-89.845-7.754-21.003-20.116-40.004-36.17-55.609-16.924-16.924-33.075-27.369-55.609-36.17-17.072-6.576-42.65-14.507-89.799-16.634-50.967-2.321-66.247-2.805-195.404-2.805-129.109 0-144.438 0.484-195.356 2.805-47.195 2.179-72.775 10.058-89.845 16.634-21.007 7.748-40.009 20.11-55.609 36.17-16.061 15.599-28.421 34.6-36.17 55.609-6.625 17.067-14.507 42.65-16.634 89.793-2.321 51.018-2.805 66.247-2.805 195.408 0 129.109 0.484 144.39 2.805 195.356 2.176 47.195 10.010 72.775 16.634 89.845 8.801 22.534 19.294 38.684 36.17 55.609 16.924 16.924 33.075 27.369 55.609 36.17 17.070 6.625 42.65 14.507 89.796 16.634 51.015 2.321 66.247 2.805 195.405 2.805zM531.278 286.828c-42.745 0-83.739 16.981-113.964 47.206s-47.205 71.221-47.205 113.966c0 42.745 16.98 83.739 47.205 113.964s71.219 47.205 113.964 47.205c42.742 0 83.736-16.98 113.962-47.205s47.206-71.219 47.206-113.964c0-42.745-16.981-83.74-47.206-113.966s-71.219-47.206-113.962-47.206zM531.278 696.306c-32.608 0-64.897-6.423-95.023-18.901s-57.499-30.768-80.556-53.826c-23.057-23.057-41.347-50.43-53.826-80.556s-18.901-62.415-18.901-95.023c0-32.608 6.422-64.899 18.901-95.022 12.479-30.128 30.769-57.498 53.826-80.555s50.43-41.353 80.556-53.828c30.126-12.481 62.415-18.904 95.023-18.904 65.856 0 129.014 26.163 175.578 72.732 46.569 46.564 72.727 109.722 72.727 175.576s-26.158 129.012-72.727 175.578c-46.564 46.566-109.722 72.727-175.578 72.727zM847.428 706.122c0-7.62-1.502-15.166-4.42-22.206-2.913-7.040-7.191-13.437-12.578-18.825s-11.782-9.663-18.825-12.579c-7.037-2.916-14.586-4.417-22.204-4.417-7.623 0-15.167 1.501-22.209 4.417-7.037 2.916-13.437 7.191-18.825 12.579s-9.66 11.785-12.578 18.825c-2.913 7.040-4.415 14.586-4.415 22.206 0 15.39 6.11 30.149 16.993 41.031s25.64 16.996 41.034 16.996c15.388 0 30.145-6.113 41.028-16.996s16.998-25.642 16.998-41.031z" />
<glyph unicode="&#xe90e;" glyph-name="phone" d="M403.389 366.797c59.281-61.412 131.009-108.823 210.146-138.906l107.065 86.994c3.174 2.236 6.935 3.43 10.792 3.43 3.851 0 7.612-1.195 10.786-3.43l198.793-130.782c7.543-4.636 13.932-10.997 18.66-18.586 4.722-7.589 7.657-16.191 8.567-25.134 0.91-8.949-0.233-17.983-3.334-26.402-3.095-8.414-8.067-15.98-14.524-22.096l-93.144-93.958c-13.34-13.46-29.736-23.336-47.724-28.752s-37.006-6.195-55.364-2.276c-183.108 38.616-351.879 129.058-487.030 260.989-132.152 133.239-223.601 302.781-263.252 488.051-3.917 18.454-3.1 37.628 2.373 55.664s15.416 34.323 28.865 47.282l96.554 95.117c5.975 6.27 13.261 11.078 21.314 14.065s16.663 4.075 25.185 3.182c8.523-0.893 16.737-3.743 24.029-8.336s13.47-10.813 18.075-18.19l132.336-200.383c2.283-3.147 3.515-6.959 3.515-10.874s-1.232-7.728-3.515-10.875l-87.183-107.006c30.261-79.194 77.406-150.517 138.016-208.791z" />
<glyph unicode="&#xe90f;" glyph-name="play" horiz-adv-x="896" d="M896.001 447.999l-768-469.333v938.667l768-469.333z" />
<glyph unicode="&#xe910;" glyph-name="plus" horiz-adv-x="1081" d="M610.896 954.444h-113.441v-449.732h-449.732v-113.439h449.732v-449.732h113.441v449.732h449.729v113.439h-449.729v449.732z" />
<glyph unicode="&#xe911;" glyph-name="question" horiz-adv-x="731" d="M278.066 237.665v30.444c0 34.134 3.751 64.576 11.253 91.33 8.439 26.753 20.63 49.816 36.571 69.189 16.879 20.295 31.414 35.517 43.604 45.665 13.128 11.070 30.945 24.447 53.451 40.13s39.385 28.137 50.638 37.362c11.253 10.148 22.036 23.986 32.352 41.514 10.315 18.45 15.473 38.746 15.473 60.886 0 36.901-12.66 66.422-37.978 88.562-25.319 23.063-55.796 34.594-91.429 34.594s-67.048-11.531-94.242-34.594c-27.194-22.14-41.26-53.045-42.198-92.714h-192.703c0.938 65.499 17.817 122.234 50.637 170.206 32.821 48.894 73.612 84.411 122.374 106.551s101.275 33.211 157.539 33.211c90.022 0 166.916-27.676 230.681-83.027 64.704-55.351 97.055-129.614 97.055-222.789 0-31.366-3.751-59.502-11.253-84.411-6.565-24.908-17.817-47.049-33.758-66.422s-29.539-34.134-40.791-44.281c-11.253-10.148-27.663-23.986-49.231-41.514-23.443-17.528-40.791-31.365-52.044-41.513s-22.505-24.908-33.758-44.281c-10.315-19.373-15.472-40.591-15.472-63.654v-30.444h-206.77zM272.44-64v215.874h218.022v-215.874h-218.022z" />
<glyph unicode="&#xe912;" glyph-name="share" horiz-adv-x="1963" d="M249.93 448c0 160.512 130.475 290.987 290.987 290.987h375.469v178.347h-375.469c-259.072 0-469.334-210.261-469.334-469.333s210.262-469.333 469.334-469.333h375.469v178.347h-375.469c-160.512 0-290.987 130.475-290.987 290.987zM634.784 354.133h750.936v187.733h-750.936v-187.733zM1479.586 917.333h-375.467v-178.347h375.467c160.512 0 290.987-130.475 290.987-290.987s-130.475-290.987-290.987-290.987h-375.467v-178.347h375.467c259.072 0 469.333 210.261 469.333 469.333s-210.261 469.333-469.333 469.333z" />
<glyph unicode="&#xe913;" glyph-name="shevron-left" d="M39.748 425.373c-12.497 12.497-12.497 32.758 0 45.254l451.25 451.25c12.497 12.497 32.758 12.497 45.254 0s12.497-32.758 0-45.255l-428.622-428.623 428.622-428.621c12.497-12.499 12.497-32.762 0-45.254-12.497-12.499-32.758-12.499-45.254 0l-451.25 451.248zM487.748 425.373c-12.497 12.497-12.497 32.758 0 45.254l451.247 451.25c12.499 12.497 32.762 12.497 45.254 0 12.499-12.497 12.499-32.758 0-45.255l-428.62-428.623 428.62-428.621c12.499-12.499 12.499-32.762 0-45.254-12.493-12.499-32.755-12.499-45.254 0l-451.247 451.248z" />
<glyph unicode="&#xe914;" glyph-name="shevron-right" d="M987.501 425.373c12.499 12.497 12.499 32.758 0 45.254l-451.249 451.25c-12.497 12.497-32.758 12.497-45.254 0s-12.497-32.758 0-45.255l428.625-428.623-428.625-428.621c-12.497-12.499-12.497-32.762 0-45.254 12.497-12.499 32.758-12.499 45.254 0l451.249 451.248zM539.503 425.373c12.497 12.497 12.497 32.758 0 45.254l-451.251 451.25c-12.497 12.497-32.758 12.497-45.255 0s-12.497-32.758 0-45.255l428.623-428.623-428.623-428.621c-12.497-12.499-12.497-32.762 0-45.254 12.497-12.499 32.758-12.499 45.255 0l451.251 451.248z" />
<glyph unicode="&#xe915;" glyph-name="telegram" horiz-adv-x="1243" d="M1130.884 953.267l-1020.45-417.068c-69.641-29.646-69.239-70.823-12.777-89.184l261.99-86.622 606.168 405.356c28.665 18.483 54.85 8.54 33.324-11.712l-491.115-469.835-18.072-286.22c26.476 0 38.159 12.873 53.008 28.058l127.255 131.16 264.697-207.228c48.801-28.482 83.858-13.846 96 47.887l173.758 867.934c17.781 75.581-27.224 109.803-73.787 87.476z" />
<glyph unicode="&#xe916;" glyph-name="triangle-down" horiz-adv-x="1920" d="M36.875 928h1856.002l-928-960-928.002 960z" />
<glyph unicode="&#xe917;" glyph-name="twitter" horiz-adv-x="1216" d="M613.049 672.625l2.497-41.523-41.619 5.085c-151.494 19.49-283.843 85.587-396.214 196.597l-54.938 55.081-14.15-40.675c-29.965-90.672-10.821-186.428 51.608-250.831 33.295-35.591 25.804-40.676-31.63-19.491-19.978 6.78-37.457 11.864-39.123 9.322-5.827-5.932 14.151-83.046 29.966-113.552 21.642-42.37 65.758-83.892 114.036-108.467l40.787-19.491-48.278-0.847c-46.614 0-48.278-0.847-43.284-18.643 16.648-55.078 82.406-113.555 155.656-138.976l51.608-17.792-44.949-27.117c-66.59-38.982-144.835-61.018-223.078-62.707-37.457-0.851-68.256-4.237-68.256-6.784 0-8.474 101.551-55.923 160.65-74.566 177.298-55.085 387.891-31.354 546.047 62.707 112.371 66.944 224.742 199.987 277.178 328.79 28.307 68.639 56.608 194.055 56.608 254.22 0 38.98 2.496 44.065 49.107 90.672 27.469 27.117 53.274 56.776 58.266 65.25 8.326 16.101 7.494 16.101-34.957 1.695-70.752-25.421-80.742-22.032-45.786 16.101 25.805 27.117 56.608 76.266 56.608 90.672 0 2.542-12.486-1.695-26.637-9.321-14.982-8.474-48.282-21.185-73.254-28.812l-44.947-14.406-40.787 27.964c-22.47 15.253-54.106 32.201-70.752 37.286-42.451 11.864-107.379 10.169-145.664-3.39-104.051-38.133-169.809-136.432-162.317-244.052z" />
<glyph unicode="&#xe918;" glyph-name="user" horiz-adv-x="740" d="M658.557 676.54c0 78.292-31.858 149.157-83.285 200.406-51.486 51.306-122.597 83.054-201.161 83.054s-149.675-31.748-201.159-83.054c-51.428-51.249-83.285-122.115-83.285-200.406s31.858-149.157 83.285-200.406c51.484-51.306 122.596-83.054 201.159-83.054s149.675 31.747 201.161 83.054c26.442 26.291 47.417 57.529 61.707 91.922s21.623 71.26 21.578 108.485zM32.778 49.385c0-56.695 128-113.385 341.333-113.385 200.137 0 341.335 56.69 341.335 113.385 0 113.385-133.916 226.765-341.335 226.765-213.333 0-341.333-113.38-341.333-226.765z" />
<glyph unicode="&#xe919;" glyph-name="viber" horiz-adv-x="1088" d="M581.217 870.56c-3.23 0.442-7.066 0.737-11.204 1.032-16.957 1.18-52.236 3.686-50.166 39.221 0.909 15.384 7.974 41.187 45.22 41.187 4.132 0 8.17-0.274 11.709-0.513l0.404-0.027c0.272-0.017 0.542-0.035 0.81-0.052 2.764-0.178 5.304-0.341 7.466-0.341 0.928-0.015 1.855 0.034 2.776 0.147 0.909 0.147 1.817 0.147 2.826 0.147 233.972-7.667 436.756-214.536 433.832-442.588 0-2.883 0.128-6.108 0.269-9.554l0.032-0.767c0.762-15.138 1.568-33.962-10.848-46.593-7.168-7.274-17.107-10.961-29.677-10.961h-1.21c-39.949 0.737-40.576 36.966-40.883 54.426v0.031c-0.051 4.865-0.147 9.485-0.653 13.27-28.922 223.039-133.44 327.874-360.703 361.935zM916.48 231.373c4.781-3.725 9.613-7.398 14.49-11.008 36.538-27.181 82.061-61.043 57.126-129.555-28.41-78.195-121.024-146.81-198.138-146.81h-1.312c-1.382 0.006-2.758 0.192-4.090 0.538-2.426 0.64-5.754 1.382-9.587 2.214-11.36 2.458-26.854 5.85-41.638 12.045-163.924 68.755-305.439 160.224-420.559 271.942-117.643 114.122-210.91 252.427-277.276 411.032-22.913 54.85-23.922 107.587-2.725 152.509 21.954 46.446 65.761 81.636 126.879 101.64 22.787 7.951 47.714 7.882 70.454-0.196 53.194-19.021 179.417-186.668 182.546-242.355 2.675-49.1-36.035-74.707-56.878-88.468-36.641-24.28-43.404-54.064-22.56-99.674 43.101-94.317 118.501-165.777 223.981-212.376 11.114-5.312 23.257-8.275 35.631-8.698 17.815 0 32.3 8.55 44.211 26.15 26.952 39.661 59.553 59.812 97 59.812 27.757 0 57.133-10.865 89.837-33.226l18.086-12.301c24.806-16.883 50.4-34.31 74.522-53.216zM553.812 662.168c9.64 27.228 37.146 27.917 50.318 28.211 35.025 0.836 73.483-16.956 105.38-48.51 31.846-31.455 50.515-70.972 50.112-105.769 1.114-33.372-11.354-51.803-37.094-54.752-1.606-0.194-3.226-0.292-4.845-0.295-21.344 0-38.054 16.858-40.525 40.941-5.299 51.754-31.898 79.572-83.628 87.633-14.232 2.261-29.928 6.39-38.104 19.66-5.602 9.093-6.157 20.102-1.615 32.881zM612.417 819.448c153.983-18.038 278.284-148.332 277.075-290.472l-0.051 0.049c0.013-0.657-0.019-1.314-0.102-1.966-0.397-2.559-0.256-6.351-0.109-10.398l0.013-0.218v-0.012c0.506-14.602 1.555-44.961-32.557-50.022-3.43-0.492-6.758-0.737-9.792-0.737-36.608 0-38.701 33.080-39.712 49.093l-0.006 0.106c-0.026 0.362-0.051 0.722-0.077 1.080-0.269 3.872-0.525 7.5-1.030 10.47-22.765 133.636-69.344 180.967-207.731 211.096-3.192 0.685-6.953 1.201-10.915 1.745l-0.895 0.123c-14.787 1.966-33.208 4.423-43.656 18.234-6.207 8.208-8.276 18.775-6.107 31.308 2.221 12.828 10.649 34.453 42.243 34.453 7.879-0.192 15.728-1.014 23.468-2.457 3.3-0.579 6.615-1.071 9.942-1.475z" />
<glyph unicode="&#xe91a;" glyph-name="youtube" horiz-adv-x="1485" d="M602.941 239.544l372.019 208.456-372.019 208.457v-416.913zM1431.562 783.616c9.318-32.658 15.77-76.434 20.070-132.023 5.018-55.588 7.168-103.534 7.168-145.225l4.301-58.368c0-152.172-11.469-264.044-31.539-335.616-17.92-62.536-59.494-102.84-124.006-120.212-33.69-9.032-95.334-15.283-189.952-19.456-93.184-4.864-178.483-6.948-257.331-6.948l-113.971-4.168c-300.341 0-487.426 11.116-561.256 30.572-64.512 17.372-106.086 57.677-124.006 120.212-9.318 32.66-15.769 76.436-20.070 132.024-5.018 55.588-7.168 103.532-7.168 145.224l-4.301 58.368c0 152.174 11.469 264.046 31.539 335.616 17.92 62.537 59.494 102.839 124.006 120.21 33.69 9.033 95.334 15.287 189.952 19.456 93.184 4.864 178.485 6.949 257.333 6.949l113.971 4.169c300.339 0 487.424-11.118 561.254-30.574 64.512-17.372 106.086-57.673 124.006-120.21z" />
<glyph unicode="&#xe91b;" glyph-name="menu-burger" horiz-adv-x="1451" d="M46.417 874.667c0 47.128 38.205 85.333 85.334 85.333h1194.662c47.13 0 85.333-38.205 85.333-85.333s-38.204-85.333-85.333-85.333h-1194.662c-47.129 0-85.334 38.205-85.334 85.333zM46.417 448c0 47.128 38.205 85.333 85.334 85.333h1194.662c47.13 0 85.333-38.205 85.333-85.333s-38.204-85.333-85.333-85.333h-1194.662c-47.129 0-85.334 38.205-85.334 85.333zM46.417 21.333c0 47.13 38.205 85.333 85.334 85.333h1194.662c47.13 0 85.333-38.204 85.333-85.333s-38.204-85.333-85.333-85.333h-1194.662c-47.129 0-85.334 38.204-85.334 85.333z" />
<glyph unicode="&#xe91c;" glyph-name="lupa" d="M141.332 812.945c70.68 70.68 166.544 110.388 266.501 110.388s195.82-39.708 266.499-110.388c70.684-70.68 110.387-166.543 110.387-266.501 0-80.794-25.941-158.912-73.21-223.225l269.887-269.881-80.458-80.452-269.881 269.881c-64.31-47.269-142.429-73.21-223.223-73.21-99.957 0-195.821 39.708-266.501 110.387s-110.388 166.543-110.388 266.5c0 99.957 39.708 195.82 110.388 266.501zM407.834 809.556c-69.782 0-136.705-27.721-186.048-77.063s-77.063-116.266-77.063-186.048c0-69.782 27.72-136.705 77.063-186.048 49.343-49.345 116.266-77.062 186.048-77.062s136.705 27.716 186.047 77.062c49.345 49.343 77.062 116.266 77.062 186.048s-27.716 136.705-77.062 186.048c-49.342 49.343-116.266 77.063-186.047 77.063z" />
<glyph unicode="&#xe91d;" glyph-name="mail" horiz-adv-x="1170" d="M1128.492 923.429h-1086.696c-23.118 0-41.796-19.314-41.796-43.221v-864.416c0-23.903 18.678-43.22 41.796-43.22h1086.696c23.113 0 41.794 19.317 41.794 43.22v864.416c0 23.907-18.681 43.221-41.794 43.221zM1022.954 776.343l-412.080-331.584c-10.188-8.239-24.425-8.239-34.613 0l-412.212 331.584c-1.554 1.241-2.694 2.952-3.26 4.895s-0.529 4.021 0.105 5.943c0.633 1.921 1.833 3.589 3.429 4.77s3.51 1.816 5.473 1.815h847.409c1.968 0.001 3.877-0.634 5.478-1.815 1.595-1.181 2.794-2.849 3.43-4.77 0.629-1.921 0.666-3.999 0.102-5.943-0.571-1.943-1.704-3.655-3.262-4.895v0z" />
<glyph unicode="&#xe91e;" glyph-name="marker" horiz-adv-x="717" d="M358.4-64c-238.95 311.808-358.4 533.658-358.4 665.6 0 47.066 9.27 93.67 27.282 137.154s44.411 82.993 77.691 116.274c33.281 33.281 72.791 59.68 116.274 77.691s90.088 27.282 137.154 27.282c47.066 0 93.671-9.27 137.154-27.282 43.485-18.011 82.991-44.411 116.271-77.691 33.285-33.281 59.684-72.791 77.696-116.274 18.007-43.483 27.279-90.088 27.279-137.154 0-131.942-119.45-353.792-358.4-665.6zM358.4 396.8c54.317 0 106.408 21.576 144.816 59.984s59.984 90.499 59.984 144.816-21.576 106.408-59.984 144.816c-38.408 38.407-90.499 59.984-144.816 59.984s-106.408-21.577-144.816-59.984c-38.407-38.408-59.984-90.499-59.984-144.816s21.577-106.408 59.984-144.816c38.408-38.409 90.499-59.984 144.816-59.984v0z" />
<glyph unicode="&#xe91f;" glyph-name="time" d="M512 960c-282.317 0-512-229.683-512-512s229.683-512 512-512c282.317 0 512 229.683 512 512s-229.683 512-512 512zM806.4 396.8h-345.6v358.4h102.4v-256h243.2v-102.4z" />
<glyph unicode="&#xe920;" glyph-name="download-cloud" horiz-adv-x="1463" d="M1239.333 512.951c-31.963 251.758-247.515 447.049-507.904 447.049-201.582 0-376.686-117.76-456.631-303.47-157.111-47.031-274.798-195.365-274.798-354.816 0-194.341 152.795-352.183 344.357-363.593v-2.121h825.929c161.353 0 292.571 131.218 292.571 292.571-0.088 65.57-22.153 129.219-62.674 180.775-40.521 51.551-97.158 88.030-160.851 103.604zM438.857 448h219.429v219.429h146.286v-219.429h219.429l-292.571-365.714-292.571 365.714z" />
<glyph unicode="&#xe921;" glyph-name="owlweb" horiz-adv-x="1609" d="M1374.698 795.806c-60.219-60.423-119.157-119.558-118.36-119.558 194.604 0 352.805-153.969 352.805-343.904s-157.755-343.901-352.358-343.901c-171.469 0-350.128 146.586-452.213 246.892-102.304-100.16-280.966-246.892-452.214-246.892-194.601 0-352.357 153.966-352.357 343.901s157.756 343.904 351.912 343.904c0.967 0-66.104 67.296-130.253 131.661-58.794 58.991-115.133 115.52-114.388 115.52 40.922-0.716 192.748 0 192.748 0l504.106-510.41 504.108 510.41c0 0 151.83-0.716 192.746 0 0.914 0-63.386-64.513-126.281-127.623zM203.372 177.825c42.404-40.982 99.915-64 159.882-64 166.801 0 344.721 214.937 344.721 214.937s-185.334 222.105-344.721 222.105c-59.968 0-117.478-23.023-159.882-64.004s-66.225-96.562-66.225-154.518c0-57.955 23.822-113.537 66.225-154.519zM900.725 328.762c0 0 177.92-214.937 344.722-214.937 59.963 0 117.475 23.018 159.876 64 42.408 40.982 66.231 96.564 66.231 154.519s-23.823 113.537-66.231 154.518c-42.401 40.981-99.913 64.004-159.876 64.004-159.393 0-344.722-222.105-344.722-222.105zM803.972 128.505l79.316-76.646-82.044-79.287-79.309 76.654 82.037 79.28z" />
<glyph unicode="&#xe922;" glyph-name="posts" horiz-adv-x="1593" d="M461.856 960h640.73c255.078 0 461.858-229.23 461.858-512 0-282.772-206.78-512-461.858-512h-1102.586v512c0 282.77 206.779 512 461.856 512zM341.333 561.778h592.703v113.778h-592.703v-113.778zM1018.709 561.778h232.846v113.778h-232.846v-113.778zM341.333 277.333h232.846v113.778h-232.846v-113.778zM730.294 277.333h232.846v113.778h-232.846v-113.778zM1026.645 277.333h232.846v113.778h-232.846v-113.778z" />
<glyph unicode="&#xe923;" glyph-name="wave" horiz-adv-x="2467" d="M548.673 714.586c-93.218 0-161.011-266.586-525.4-266.586v-46.545c93.216-31.032 277.953-42.314 338.967-42.314 76.268 0 110.164-135.405 144.063-135.405 33.894 0 42.37 59.238 84.741 59.238s84.741-152.329 135.587-152.329c50.846 0 16.947 93.091 101.688 93.091 84.745 0 101.693-287.735 177.957-287.735 76.269 0 118.64 287.735 177.962 287.735 59.318 0 42.37-152.329 101.688-152.329s76.269 152.329 135.587 152.329c59.318 0 135.587-203.106 186.433-203.106 50.842 0 135.587 203.106 186.429 203.106 50.846 0 84.745-67.7 135.587-67.7 50.846 0 118.64 203.106 203.38 203.106 67.584 0 333.568 42.314 333.568 42.314v46.545c0 0-197.981 29.622-333.568 29.622s-110.164 152.329-161.005 152.329c-50.846 0-16.952-67.702-93.217-67.702-76.269 0-84.745 152.338-135.587 152.338-50.846 0-42.37-84.636-110.164-84.636s-93.217 330.050-169.486 330.050c-76.269 0-135.587-321.587-177.957-330.050s-93.217 135.405-135.587 143.868c-42.37 8.463-67.793-160.786-127.111-160.786-59.322 0-101.693 236.959-169.486 245.422s-144.058-245.422-203.38-245.422c-59.318 0-8.471 101.554-101.688 101.554z" />
<glyph unicode="&#xe924;" glyph-name="home" horiz-adv-x="896" d="M896 18.534c0-13.402-5.242-26.259-14.579-35.731-9.338-9.478-21.997-14.803-35.2-14.803h-796.443c-13.202 0-25.863 5.325-35.198 14.803-9.335 9.472-14.58 22.33-14.58 35.731v539.997c-0.003 7.633 1.697 15.168 4.973 22.038s8.043 12.898 13.942 17.63l398.222 318.916c8.788 7.050 19.661 10.885 30.862 10.885s22.074-3.835 30.862-10.885l398.22-318.865c5.907-4.737 10.682-10.773 13.958-17.653s4.973-14.424 4.96-22.066v-539.997zM199.111 422.799c0-67.011 26.222-131.279 72.898-178.665 46.676-47.379 109.981-74.003 175.991-74.003s129.315 26.624 175.991 74.003c46.678 47.386 72.899 111.654 72.899 178.665h-99.556c0-40.207-15.733-78.767-43.739-107.196s-65.988-44.403-105.594-44.403c-39.606 0-77.589 15.974-105.595 44.403s-43.738 66.989-43.738 107.196h-99.556z" />
<glyph unicode="&#xe925;" glyph-name="pause" horiz-adv-x="683" d="M0 960h278.639v-1024h-278.639v1024zM452.789 960h278.639v-1024h-278.639v1024z" />
<glyph unicode="&#xe926;" glyph-name="play-icon" horiz-adv-x="614" d="M2.667-8.315l94.394 465.224-94.394 465.224 566.361-465.224-566.361-465.224z" />
<glyph unicode="&#xe927;" glyph-name="quote" horiz-adv-x="1463" d="M102.742-64l210.377 411.516h-313.12v612.484h626.239v-612.484l-210.377-411.516h-313.12zM939.359-64l210.378 411.516h-313.12v612.484h626.239v-612.484l-210.378-411.516h-313.12z" />
</font>
</defs>
</svg>
